<svg width="180" height="60" viewBox="0 0 180 60" fill="none" xmlns="http://www.w3.org/2000/svg">
<path d="M27.8434 28.9792C27.8434 28.696 27.985 28.3703 28.3107 28.0304C29.4435 26.756 30.109 25.0993 30.109 23.0035V18.7838C30.109 13.3887 26.8946 10.8257 23.0572 10.8257H16.0479C15.4248 10.8257 15 11.2647 15 11.8735V13.4878C15 14.7622 16.6992 13.9126 16.6992 15.1871V43.5643C16.6992 44.8387 15 43.9891 15 45.2635V46.8778C15 47.5008 15.4248 47.9257 16.0479 47.9257H23.3971C27.2345 47.9257 30.3639 45.4193 30.3639 39.9676V35.4221C30.3639 33.1989 29.5568 31.3015 28.3673 30.027C28.0416 29.7014 27.8434 29.3615 27.8434 28.9792ZM20.211 15.3853C20.211 14.7622 20.6358 14.3374 21.2588 14.3374H23.0572C25.2804 14.3374 26.6539 15.6685 26.6539 18.4581V23.3859C26.6539 25.9914 25.1813 27.5065 23.3829 27.5065H21.2447C20.6358 27.5065 20.1968 27.0817 20.1968 26.4586V15.3853H20.211ZM26.7955 40.3074C26.7955 43.097 25.6627 44.4281 23.3829 44.4281H21.2447C20.6358 44.4281 20.1968 44.0033 20.1968 43.3802V31.967C20.1968 31.344 20.6216 30.9191 21.2447 30.9191H23.2838C25.3653 30.9191 26.7955 32.3352 26.7955 35.0398V40.2933V40.3074Z" fill="white"/>
<path d="M42.3433 10.8257H39.3555C35.6597 10.8257 33.8047 12.8648 33.8047 16.8863V41.9075C33.8047 45.9291 35.6597 47.9257 39.3555 47.9257H42.3433C46.0392 47.9257 47.8375 45.9291 47.8375 41.9075V16.9004C47.8375 12.8789 46.0392 10.8398 42.3433 10.8398V10.8257ZM44.3399 42.1907C44.3399 43.7059 43.6744 44.4139 42.3433 44.4139H39.3555C38.0245 44.4139 37.3589 43.7059 37.3589 42.1907V16.5606C37.3589 15.0879 38.0245 14.3374 39.3555 14.3374H42.3433C43.6744 14.3374 44.3399 15.1021 44.3399 16.5606V42.1907Z" fill="white"/>
<path d="M60.3844 10.8257H57.3965C53.7007 10.8257 51.8457 12.8648 51.8457 16.8863V41.9075C51.8457 45.9291 53.7007 47.9257 57.3965 47.9257H60.3844C64.0802 47.9257 65.8786 45.9291 65.8786 41.9075V16.9004C65.8786 12.8789 64.0802 10.8398 60.3844 10.8398V10.8257ZM62.381 42.1907C62.381 43.7059 61.7154 44.4139 60.3844 44.4139H57.3965C56.0655 44.4139 55.3999 43.7059 55.3999 42.1907V16.5606C55.3999 15.0879 56.0655 14.3374 57.3965 14.3374H60.3844C61.7154 14.3374 62.381 15.1021 62.381 16.5606V42.1907Z" fill="white"/>
<path d="M75.8326 27.3649C75.7335 27.0817 75.691 26.7985 75.691 26.5153C75.691 26.1896 75.7901 25.8498 75.9742 25.4674L83.1818 12.3833C83.3234 12.1001 83.4225 11.8594 83.4225 11.6187C83.4225 11.0947 82.9977 10.8115 82.2897 10.8115H80.8736C80.4913 10.8115 80.1656 11.0522 79.9674 11.3779L75.4219 19.7183C74.898 20.7096 74.4307 21.191 74.0909 21.191C73.7085 21.191 73.4678 20.5255 73.4678 19.1944V11.8735C73.4678 11.2505 73.043 10.8257 72.4199 10.8257H70.9473C70.3384 10.8257 69.8994 11.2505 69.8994 11.8735V46.892C69.8994 47.515 70.3242 47.9398 70.9473 47.9398H72.4199C73.043 47.9398 73.4678 47.515 73.4678 46.892V36.3284C73.4678 34.6291 73.6519 33.7229 74.0342 33.7229C74.4165 33.7229 74.8838 34.4875 75.4502 35.946L79.9107 47.2743C80.0523 47.6566 80.4347 47.9398 80.8595 47.9398H82.5162C83.1818 47.9398 83.5641 47.6141 83.5641 47.0902C83.5641 46.9486 83.5641 46.7079 83.465 46.5238L75.8326 27.3791V27.3649Z" fill="white"/>
<path d="M102.793 19.5909C102.326 18.6847 102.128 17.5943 102.128 16.7022C102.128 14.8047 103.317 13.9976 104.408 13.9976C105.682 13.9976 106.872 14.9039 106.872 16.5606C106.872 16.6314 106.886 16.688 106.9 16.7589H105.979C105.725 16.7589 105.555 17.0137 105.654 17.2545L108.061 23.0743C108.231 23.485 108.826 23.485 108.996 23.0743L111.417 17.2545C111.516 17.0279 111.346 16.7589 111.091 16.7589H110.157C110.157 16.7589 110.185 16.6314 110.185 16.5606C110.185 13.148 107.679 10.5 104.408 10.5C101.661 10.5 98.6727 12.4966 98.6727 16.9854C98.6727 18.0758 98.8568 19.4493 99.664 21.1061L106.872 35.7478C107.721 37.5462 108.004 38.7356 108.004 40.0101C108.004 43.805 105.866 44.7538 104.124 44.7538C101.717 44.7538 99.7914 43.1536 99.7631 40.5765H100.712C100.967 40.5765 101.137 40.3216 101.038 40.0809L98.6303 34.261C98.4603 33.8503 97.8656 33.8503 97.6957 34.261L95.2884 40.0809C95.1893 40.3074 95.3592 40.5765 95.6141 40.5765H96.5062C96.5204 45.391 99.8764 48.2655 104.181 48.2655C108.486 48.2655 111.53 45.4193 111.53 40.0667C111.53 38.0276 111.063 36.3284 109.874 33.907L102.808 19.5909H102.793Z" fill="white"/>
<path d="M129.316 10.8257H127.943C127.277 10.8257 126.951 11.208 126.895 11.8169L125.705 30.82C125.606 32.6184 125.38 33.5246 125.04 33.5246C124.756 33.5246 124.374 32.675 123.992 30.9616L122.76 25.7506C122.661 25.4249 122.378 25.1842 122.052 25.1842C121.67 25.1842 121.386 25.4249 121.287 25.7506L120.055 30.9616C119.63 32.6609 119.248 33.5246 118.922 33.5246C118.639 33.5246 118.356 32.6184 118.257 30.82L117.124 11.8169C117.082 11.1939 116.699 10.8257 116.076 10.8257H114.745C114.08 10.8257 113.697 11.2505 113.697 11.916L115.694 46.9344C115.736 47.5575 116.119 47.9257 116.742 47.9257H118.455C118.979 47.9257 119.404 47.6 119.503 47.076L121.018 39.6419C121.301 38.1692 121.627 37.4187 122.009 37.4187C122.335 37.4187 122.717 38.1834 123.057 39.6419L124.572 47.076C124.671 47.6 125.096 47.9257 125.62 47.9257H127.277C127.886 47.9257 128.268 47.5433 128.325 46.9344L130.364 11.916C130.364 11.2505 129.982 10.8257 129.316 10.8257Z" fill="white"/>
<path d="M142.485 11.7319C142.386 11.1655 141.962 10.8257 141.438 10.8257H138.69C138.167 10.8257 137.742 11.1514 137.643 11.7319L132.432 45.8441C132.29 46.8353 132.29 46.892 132.29 46.9344C132.29 47.5575 132.672 47.9257 133.338 47.9257H134.612C135.136 47.9257 135.561 47.5433 135.66 47.0194L136.609 40.1941C136.708 39.6702 137.133 39.2879 137.657 39.2879H142.4C142.924 39.2879 143.349 39.6136 143.448 40.1941L144.496 47.0194C144.595 47.5858 145.02 47.9257 145.544 47.9257H146.776C147.442 47.9257 147.824 47.5433 147.824 46.9344C147.824 46.892 147.824 46.8353 147.682 45.8441L142.514 11.7319H142.485ZM141.537 35.8044H138.506C137.883 35.8044 137.515 35.4788 137.515 34.8982C137.515 34.6575 137.558 34.1902 137.657 33.6238L138.988 24.4762C139.314 22.3946 139.653 21.3468 140.036 21.3468C140.418 21.3468 140.744 22.3946 141.084 24.4762L142.457 33.6238C142.556 34.1902 142.599 34.6716 142.599 34.8982C142.599 35.5212 142.174 35.8044 141.551 35.8044H141.537Z" fill="white"/>
<path d="M157.935 10.8257H152.157C151.548 10.8257 151.109 11.2505 151.109 11.8735V46.892C151.109 47.515 151.534 47.9398 152.157 47.9398H153.63C154.253 47.9398 154.678 47.515 154.678 46.892V32.0095C154.678 31.4006 155.103 30.9616 155.726 30.9616H157.949C161.404 30.9616 165.015 28.257 165.015 23.0035V18.7838C165.015 13.5303 161.418 10.8257 157.949 10.8257H157.935ZM161.39 23.3292C161.39 26.0338 159.875 27.4499 157.935 27.4499H155.711C155.088 27.4499 154.664 27.0251 154.664 26.402V15.3853C154.664 14.7622 155.088 14.3374 155.711 14.3374H157.935C159.875 14.3374 161.39 15.7535 161.39 18.4581V23.3434V23.3292Z" fill="white"/>
</svg>
